<?xml version="1.0" standalone="no"?>
<!DOCTYPE svg PUBLIC "-//W3C//DTD SVG 20010904//EN"
 "http://www.w3.org/TR/2001/REC-SVG-20010904/DTD/svg10.dtd">
<svg version="1.0" xmlns="http://www.w3.org/2000/svg"
 width="1024.000000pt" height="1024.000000pt" viewBox="0 0 1024.000000 1024.000000"
 preserveAspectRatio="xMidYMid meet">

<g transform="translate(0.000000,1024.000000) scale(0.100000,-0.100000)"
fill="#000000" stroke="none">
<path d="M5220 9041 c-259 -84 -356 -346 -217 -584 45 -76 156 -148 247 -161
112 -15 265 38 335 115 20 23 53 75 73 116 66 140 44 276 -65 393 -79 85 -161
124 -268 127 -44 1 -91 -1 -105 -6z"/>
<path d="M4381 8948 c-30 -7 -56 -23 -86 -52 -56 -56 -73 -120 -55 -208 14
-72 14 -71 -105 -161 -44 -34 -116 -93 -160 -132 -44 -39 -105 -90 -135 -114
-30 -25 -71 -60 -91 -78 l-36 -34 51 -50 51 -49 70 73 c39 39 133 128 209 197
77 69 160 144 185 168 44 43 46 43 87 33 64 -16 120 -13 163 8 45 24 98 81
107 117 7 26 7 26 100 22 l94 -3 0 52 c0 28 3 59 7 69 6 16 -1 17 -93 11 l-99
-6 -23 39 c-29 51 -76 86 -132 99 -52 12 -51 12 -109 -1z"/>
<path d="M6085 8944 c-44 -23 -73 -53 -87 -91 l-12 -33 -98 0 -98 0 10 -26 c6
-14 10 -43 10 -65 l0 -39 48 -2 c26 -1 66 -1 89 0 41 3 42 2 54 -38 20 -65 99
-120 171 -120 19 0 63 17 103 38 58 31 74 45 93 84 45 91 24 192 -55 257 -62
51 -166 67 -228 35z"/>
<path d="M6370 8560 c-11 -22 -25 -40 -30 -40 -23 0 -5 -23 68 -86 42 -37 143
-128 225 -202 197 -181 180 -171 221 -128 18 20 38 36 45 36 38 0 -23 63 -190
198 -41 33 -121 101 -179 152 -138 121 -135 120 -160 70z"/>
<path d="M4665 8471 c-163 -100 -205 -126 -540 -339 -105 -66 -206 -128 -226
-137 l-37 -18 18 -31 c10 -17 22 -48 25 -68 4 -21 10 -38 14 -38 10 0 174 98
246 146 70 48 117 77 440 271 132 79 251 155 264 168 23 22 24 26 9 42 -9 10
-22 37 -29 61 -7 23 -15 42 -18 42 -3 0 -78 -44 -166 -99z"/>
<path d="M5763 8492 l-32 -67 27 -23 c15 -12 97 -63 182 -113 163 -96 403
-243 555 -339 112 -72 198 -120 212 -120 6 0 14 19 18 43 4 23 13 52 21 64 14
22 11 24 -53 67 -38 24 -102 63 -143 88 -176 105 -611 373 -677 419 -40 27
-74 49 -75 49 -2 -1 -17 -31 -35 -68z"/>
<path d="M5686 8341 c-4 -6 -30 -29 -57 -51 l-49 -38 83 -94 c46 -51 116 -136
157 -188 40 -52 75 -97 77 -99 2 -3 16 7 31 21 15 14 39 33 54 43 l27 17 -25
39 c-13 21 -70 94 -127 162 -56 68 -116 140 -133 162 -21 26 -33 34 -38 26z"/>
<path d="M4801 8181 c-72 -87 -144 -169 -161 -181 -16 -12 -30 -25 -30 -30 0
-4 26 -33 57 -63 l57 -54 24 36 c37 55 97 125 205 243 l98 106 -51 49 c-29 26
-56 49 -60 51 -4 2 -67 -69 -139 -157z"/>
<path d="M5260 8141 c0 -21 3 -53 6 -70 6 -28 10 -31 45 -31 l39 0 0 70 0 70
-45 0 -45 0 0 -39z m46 16 c4 -4 0 -7 -9 -7 -9 0 -18 4 -21 9 -7 10 20 9 30
-2z"/>
<path d="M3331 8094 c-60 -16 -136 -67 -173 -116 -54 -71 -71 -119 -76 -209
-8 -151 50 -271 161 -338 91 -54 130 -64 234 -58 112 5 182 35 242 104 62 70
84 138 85 263 1 96 -2 111 -28 168 -37 79 -114 152 -191 181 -66 25 -173 27
-254 5z"/>
<path d="M7113 8100 c-80 -17 -184 -85 -226 -149 -76 -115 -87 -275 -27 -398
35 -71 88 -120 170 -161 48 -23 67 -27 141 -26 77 1 93 5 160 37 144 69 212
177 213 337 0 105 -28 174 -103 253 -87 92 -209 132 -328 107z"/>
<path d="M5261 8007 c-48 -18 -109 -81 -122 -127 -24 -79 23 -200 90 -235 l31
-16 0 -112 0 -112 50 -1 50 0 0 112 0 113 44 30 c112 77 115 235 6 321 -46 37
-98 46 -149 27z"/>
<path d="M4375 7845 c-77 -27 -145 -124 -145 -206 0 -51 31 -130 68 -171 41
-46 75 -63 144 -73 41 -6 57 -3 112 23 54 25 71 40 103 88 35 53 38 63 37 125
0 57 -5 75 -29 111 -38 59 -71 85 -129 103 -61 18 -109 19 -161 0z"/>
<path d="M6065 7831 c-80 -37 -135 -120 -135 -203 0 -52 37 -133 76 -170 100
-94 265 -73 351 45 35 47 38 57 38 117 -1 99 -51 179 -137 214 -51 22 -143 20
-193 -3z"/>
<path d="M3930 7700 c0 -25 -3 -55 -6 -67 -6 -23 -5 -23 97 -23 l104 0 0 64 0
65 -98 3 -97 3 0 -45z"/>
<path d="M6578 7741 c-74 -5 -86 -8 -78 -21 5 -8 10 -36 10 -62 l0 -48 101 0
102 0 -7 53 c-3 28 -6 60 -6 70 0 10 -7 16 -17 15 -10 -1 -57 -4 -105 -7z"/>
<path d="M6474 7465 c-9 -19 -29 -46 -45 -60 l-30 -24 167 -198 c92 -109 214
-260 272 -336 58 -75 108 -136 111 -134 3 2 25 12 49 23 40 17 43 21 37 49
-10 55 -188 295 -379 513 -49 56 -106 124 -127 152 l-38 50 -17 -35z"/>
<path d="M4079 7427 c-30 -34 -98 -116 -150 -182 -52 -66 -135 -169 -183 -230
-105 -132 -137 -184 -138 -223 -1 -34 39 -105 56 -99 10 3 156 184 248 307 39
52 180 221 269 322 l41 47 -36 47 c-20 26 -36 53 -36 60 0 24 -13 14 -71 -49z"/>
<path d="M5797 7332 l-88 -88 40 -41 39 -42 92 87 92 87 -39 43 c-22 23 -42
42 -44 42 -3 0 -44 -40 -92 -88z"/>
<path d="M4690 7374 l-32 -36 34 -37 c88 -96 143 -151 153 -150 5 0 25 21 44
47 l34 46 -89 83 c-49 45 -94 83 -100 83 -7 0 -26 -16 -44 -36z"/>
<path d="M3121 7277 c-10 -35 -22 -84 -26 -109 -6 -40 -11 -46 -41 -57 -21 -8
-48 -30 -65 -54 -28 -38 -30 -48 -27 -100 5 -68 38 -110 101 -129 33 -10 43
-20 69 -72 38 -75 34 -72 54 -52 9 10 28 25 41 33 21 14 24 21 17 52 -3 20 -7
141 -8 269 l-2 234 -39 24 c-22 13 -43 24 -47 24 -4 0 -16 -28 -27 -63z"/>
<path d="M7428 7310 l-37 -30 2 -270 2 -270 38 -25 c20 -14 41 -23 46 -20 5 3
17 28 26 55 17 51 38 72 85 85 53 15 100 82 100 141 0 67 -64 134 -128 134
l-30 0 -4 73 c-3 70 -30 147 -53 154 -6 2 -27 -11 -47 -27z"/>
<path d="M5232 7279 c-271 -47 -432 -392 -302 -649 79 -156 202 -230 386 -230
154 0 256 49 341 163 70 94 86 137 91 248 8 169 -45 290 -166 379 -104 77
-233 110 -350 89z"/>
<path d="M3368 6805 c-2 -253 -1 -498 2 -544 l5 -84 70 -1 70 -1 8 185 c6 122
5 230 -2 315 -6 72 -11 234 -11 360 l0 230 -69 0 -69 0 -4 -460z"/>
<path d="M7163 7253 l-53 -4 0 -240 0 -239 33 0 c17 0 49 -3 70 -6 l37 -7 0
252 c0 233 -1 251 -17 249 -10 -1 -42 -3 -70 -5z"/>
<path d="M4117 7009 c-135 -32 -196 -228 -104 -327 56 -61 154 -79 226 -42 45
22 93 89 111 155 11 39 10 51 -4 90 -10 24 -26 55 -36 68 -38 48 -124 73 -193
56z"/>
<path d="M6363 6995 c-23 -14 -52 -42 -64 -62 l-22 -36 -173 7 c-94 4 -184 4
-198 0 -24 -6 -26 -10 -26 -65 l0 -59 198 0 197 0 30 -58 c24 -45 39 -62 75
-79 101 -52 209 -12 257 94 24 53 25 61 15 112 -30 140 -176 214 -289 146z"/>
<path d="M4387 6886 c-8 -21 4 -90 17 -98 6 -4 90 -8 186 -8 l175 0 0 60 0 60
-186 0 c-154 0 -188 -3 -192 -14z"/>
<path d="M7083 6631 c-143 -49 -225 -163 -226 -316 -1 -101 13 -150 61 -214
137 -182 368 -210 516 -63 156 155 163 367 17 513 -71 71 -141 99 -244 99 -42
-1 -93 -8 -124 -19z"/>
<path d="M3175 6506 c-56 -55 -95 -135 -95 -197 0 -52 44 -150 84 -188 l24
-22 51 37 c39 27 50 41 45 53 -4 9 -10 93 -15 186 -4 94 -8 171 -8 173 -1 1
-10 2 -21 2 -10 0 -40 -20 -65 -44z"/>
<path d="M6318 6505 c-18 -29 -23 -45 -15 -45 7 0 26 -13 42 -30 16 -16 31
-30 35 -30 10 0 70 83 70 97 0 17 -58 53 -85 53 -13 0 -30 -16 -47 -45z"/>
<path d="M5733 6470 l-42 -46 79 -72 78 -72 17 28 c10 15 27 35 39 44 21 17
20 17 -44 86 -36 38 -69 71 -75 74 -5 2 -29 -17 -52 -42z"/>
<path d="M4778 6445 c-38 -36 -68 -69 -68 -73 0 -5 11 -19 25 -32 14 -13 25
-30 25 -37 0 -25 29 -9 105 57 l74 65 -42 43 c-23 23 -44 42 -47 42 -3 0 -35
-30 -72 -65z"/>
<path d="M4425 6351 c-108 -28 -175 -119 -175 -239 0 -103 32 -165 108 -209
38 -22 59 -28 107 -28 173 2 300 155 251 303 -41 123 -175 203 -291 173z"/>
<path d="M6044 6331 c-27 -12 -57 -39 -84 -75 -37 -49 -43 -64 -47 -121 -11
-124 64 -218 193 -245 48 -10 62 -9 118 10 97 32 146 98 146 198 0 115 -62
218 -145 241 -60 16 -135 13 -181 -8z"/>
<path d="M5283 6273 c-21 -4 -23 -10 -23 -64 0 -81 11 -99 60 -99 l40 0 0 85
0 85 -27 -1 c-16 -1 -38 -4 -50 -6z"/>
<path d="M3790 6242 c-24 -25 -28 -35 -22 -53 16 -41 74 -62 201 -71 64 -4
126 -9 137 -11 19 -3 22 2 27 47 2 28 6 57 8 65 5 17 -83 34 -228 46 l-92 7
-31 -30z"/>
<path d="M6486 6213 c7 -21 13 -50 14 -65 0 -37 21 -41 147 -33 l105 8 -6 45
c-3 24 -6 53 -6 63 0 18 -10 19 -134 19 l-134 0 14 -37z"/>
<path d="M3362 6067 c-18 -7 -57 -31 -86 -54 -95 -73 -143 -209 -116 -325 10
-41 24 -63 65 -104 86 -86 206 -112 339 -74 25 8 61 34 102 73 101 100 112
172 53 345 -24 71 -41 88 -114 123 -50 24 -72 29 -135 28 -41 0 -90 -6 -108
-12z"/>
<path d="M5256 6055 c-150 -53 -169 -260 -31 -353 l48 -33 -2 -58 -2 -59 45
-4 46 -3 0 59 c0 57 2 61 50 112 60 63 80 106 80 169 0 74 -46 138 -122 169
-45 19 -61 19 -112 1z"/>
<path d="M6826 5984 c-22 -15 -91 -57 -155 -94 -64 -36 -215 -126 -336 -200
-121 -73 -258 -155 -305 -183 -47 -27 -108 -64 -137 -81 -28 -17 -77 -46 -107
-64 -31 -19 -56 -35 -56 -38 0 -2 14 -23 30 -46 17 -22 30 -49 30 -60 0 -10 5
-18 10 -18 16 0 68 28 130 70 31 21 89 58 130 82 41 25 125 76 185 113 61 37
173 104 250 148 260 147 420 245 443 270 l24 25 -34 37 c-18 20 -37 43 -41 51
-11 19 -16 18 -61 -12z"/>
<path d="M3866 5903 c3 -16 8 -57 12 -93 l7 -64 105 -56 c84 -45 399 -229 803
-471 56 -34 57 -34 57 -11 1 9 11 37 24 62 l24 45 -77 53 c-42 29 -105 69
-141 89 -36 20 -103 59 -150 88 -47 28 -134 80 -195 115 -60 35 -150 89 -200
120 -90 56 -258 150 -269 150 -3 0 -3 -12 0 -27z"/>
<path d="M4710 5855 c-8 -9 -38 -31 -68 -47 l-53 -31 83 -86 c46 -47 110 -117
143 -156 32 -38 75 -87 94 -107 l34 -37 39 34 c21 19 45 35 53 35 24 0 18 11
-45 85 -75 88 -218 263 -245 300 -19 26 -21 26 -35 10z"/>
<path d="M5843 5803 c-92 -106 -229 -275 -243 -303 -10 -19 -10 -25 0 -28 6
-2 27 -17 45 -33 18 -16 37 -29 42 -29 5 0 34 30 64 67 97 119 190 223 200
223 5 0 15 12 21 26 7 14 23 31 36 38 l24 13 -33 21 c-19 11 -45 32 -58 46
-14 14 -28 26 -32 26 -4 0 -34 -30 -66 -67z"/>
<path d="M7075 5810 c-7 -8 -18 -38 -25 -65 -12 -47 -11 -54 13 -101 14 -28
33 -56 41 -64 24 -19 95 -29 127 -18 28 10 64 52 55 66 -2 4 0 43 4 87 5 49 4
85 -2 92 -6 7 -47 13 -104 15 -75 2 -98 0 -109 -12z"/>
<path d="M6670 5514 c-74 -69 -161 -146 -192 -171 -32 -25 -58 -49 -58 -53 0
-4 5 -33 12 -64 8 -43 13 -54 20 -42 5 9 13 14 17 12 16 -10 421 342 421 367
0 4 -4 6 -9 3 -11 -7 -37 22 -45 52 -4 12 -13 22 -19 22 -7 0 -73 -57 -147
-126z"/>
<path d="M3807 5565 c-9 -19 -25 -40 -35 -46 -17 -11 -3 -25 131 -133 203
-164 311 -246 317 -239 5 5 6 11 9 37 0 8 11 18 22 21 19 6 13 16 -62 92 -83
84 -341 303 -357 303 -5 0 -16 -16 -25 -35z"/>
<path d="M5199 5415 c-110 -35 -225 -160 -250 -271 -18 -82 -8 -208 24 -277
60 -132 180 -208 332 -211 178 -3 301 79 364 244 31 79 33 92 29 180 -3 80 -8
105 -32 153 -32 66 -99 125 -186 165 -69 32 -209 40 -281 17z"/>
<path d="M6148 5249 c-64 -15 -115 -56 -144 -115 l-26 -54 -53 0 c-29 0 -66
-3 -82 -6 -29 -6 -30 -8 -32 -62 -1 -35 4 -59 12 -64 6 -4 49 -8 95 -8 61 0
82 -3 82 -13 0 -29 70 -95 117 -111 58 -20 94 -20 140 -1 128 53 176 170 134
319 -17 59 -67 99 -142 115 -56 12 -50 12 -101 0z"/>
<path d="M4400 5241 c-48 -9 -119 -50 -142 -81 -28 -38 -36 -176 -14 -233 39
-102 143 -149 259 -116 38 10 130 89 139 119 4 11 25 16 91 18 l87 4 0 49 c0
27 0 52 0 57 0 4 -36 8 -81 8 -44 1 -81 3 -82 5 -1 2 -15 30 -31 62 -43 86
-128 126 -226 108z"/>
<path d="M6948 4088 c-110 -14 -205 -82 -263 -188 l-30 -55 0 -180 c0 -168 1
-183 23 -228 75 -151 252 -230 413 -184 78 23 163 96 208 177 l36 65 -1 165
c-1 199 -16 253 -94 331 -82 82 -174 113 -292 97z m164 -194 c58 -40 67 -72
67 -232 1 -156 -9 -188 -68 -228 -79 -52 -210 -38 -266 27 -25 30 -25 33 -25
208 l0 177 28 27 c69 66 187 76 264 21z"/>
<path d="M8725 3999 c-49 -56 -112 -131 -138 -168 -52 -71 -87 -111 -97 -111
-3 0 -6 83 -5 185 l0 185 -76 0 -76 0 -7 -417 c-3 -229 -3 -420 2 -425 4 -4
43 -5 86 -1 l78 6 -4 127 -3 126 43 49 c23 26 42 52 42 56 0 22 18 5 37 -33
11 -24 55 -90 98 -148 43 -58 86 -123 97 -145 l20 -40 89 0 c75 0 89 2 86 15
-2 8 -70 116 -150 238 -126 193 -145 227 -136 244 19 35 219 282 257 316 l35
32 -65 0 c-36 0 -78 2 -94 5 -26 5 -37 -4 -119 -96z"/>
<path d="M1590 3671 l0 -421 82 0 81 0 -7 160 -7 160 168 0 168 0 1 69 1 68
-90 7 c-50 3 -125 6 -169 6 l-78 0 0 105 0 105 199 0 199 0 4 75 3 75 -240 0
c-132 0 -257 3 -277 6 l-38 7 0 -422z"/>
<path d="M2280 3665 l0 -420 81 3 82 4 -6 129 c-4 96 -2 131 6 134 7 2 42 6
79 8 l68 5 49 -92 c27 -50 61 -113 76 -141 l28 -50 83 0 c46 0 84 4 84 8 0 11
-44 88 -90 157 -42 62 -80 134 -80 150 0 5 7 10 15 10 27 0 92 69 115 123 30
68 31 167 2 223 -29 57 -100 118 -164 142 -47 18 -83 21 -242 24 l-186 3 0
-420z m387 248 c68 -32 91 -108 53 -170 -33 -54 -57 -63 -179 -68 l-111 -4 0
129 0 130 101 0 c74 0 111 -5 136 -17z"/>
<path d="M3285 4060 c-12 -46 -258 -707 -302 -807 -3 -9 16 -11 78 -8 94 5 92
3 125 108 l18 57 160 -2 159 -3 26 -78 27 -79 87 -3 c48 -2 87 0 87 5 0 5 -27
73 -61 152 -33 79 -76 184 -94 233 -18 50 -60 155 -93 235 -33 80 -64 159 -69
175 -9 29 -13 30 -76 35 -64 5 -66 4 -72 -20z m115 -337 c18 -43 41 -99 51
-125 l19 -48 -110 0 -110 0 26 58 c14 31 34 80 44 107 27 76 32 85 40 85 4 0
22 -35 40 -77z"/>
<path d="M3860 3666 l0 -426 81 0 82 0 -5 234 c-5 213 -1 283 15 244 3 -7 40
-60 83 -118 44 -58 88 -122 99 -143 11 -20 22 -37 25 -37 6 0 29 32 173 233
31 44 60 83 63 86 3 3 5 -98 4 -224 -1 -127 -1 -240 -1 -252 1 -22 5 -23 76
-23 l75 0 0 420 0 420 -65 0 -65 0 -15 -36 c-15 -38 -23 -49 -156 -240 l-84
-121 -27 36 c-15 20 -62 81 -103 136 -42 55 -92 128 -111 163 -32 55 -39 62
-67 62 -18 0 -42 3 -54 6 l-23 6 0 -426z"/>
<path d="M5475 4071 c4 -9 26 -88 50 -176 39 -141 71 -246 173 -563 l27 -83
65 3 65 3 38 130 c21 72 55 179 76 238 l37 108 38 -133 c38 -134 101 -312 119
-335 5 -8 32 -13 62 -13 l53 0 15 43 c95 266 164 475 202 606 25 87 48 166 51
175 5 14 -5 16 -79 16 l-85 0 -12 -47 c-6 -27 -34 -122 -61 -213 -27 -91 -57
-187 -65 -215 -25 -83 -25 -83 -40 -40 -13 36 -110 387 -132 475 -4 19 -11 34
-15 33 -4 -2 -31 -3 -61 -3 l-53 0 -13 -47 c-64 -241 -131 -476 -140 -486 -3
-4 -28 73 -55 170 -27 98 -60 220 -75 272 l-27 93 -82 2 c-70 2 -81 0 -76 -13z"/>
<path d="M7520 3671 c0 -231 3 -421 7 -423 4 -2 41 -2 81 0 l72 4 0 129 c0 95
3 131 13 133 6 3 37 7 67 10 l55 6 46 -78 c26 -42 63 -105 84 -139 l38 -63 84
0 c45 0 83 3 83 8 0 4 -14 27 -31 52 -16 25 -55 93 -85 152 l-54 108 25 6 c14
3 45 28 69 55 54 60 71 123 57 211 -18 105 -73 178 -170 222 -41 18 -69 20
-243 23 l-197 3 -1 -419z m427 214 c33 -33 35 -39 31 -84 -6 -56 -31 -96 -72
-111 -16 -5 -73 -10 -127 -10 l-99 0 0 120 0 120 116 0 116 0 35 -35z"/>
<path d="M4838 3663 c2 -230 5 -420 7 -422 2 -1 123 0 269 4 l266 8 0 78 0 79
-195 0 -195 0 0 90 0 90 165 0 166 0 -3 68 -3 67 -160 5 -160 5 0 94 0 94 187
-2 186 -2 4 80 3 81 -270 0 -270 0 3 -417z"/>
<path d="M4944 2964 c-65 -15 -163 -152 -148 -208 3 -14 31 -48 61 -76 47 -43
69 -54 154 -81 56 -17 103 -38 106 -46 9 -23 -17 -61 -56 -79 -30 -14 -42 -15
-80 -5 -24 6 -56 21 -71 31 -34 24 -61 25 -100 5 -41 -21 -38 -47 11 -94 115
-112 319 -95 405 33 87 132 33 217 -169 266 -51 12 -102 29 -114 36 -54 34 -2
112 65 99 18 -3 49 -15 68 -26 45 -25 70 -24 118 4 49 28 54 40 24 70 -47 46
-203 87 -274 71z"/>
<path d="M4000 2741 c0 -188 3 -221 19 -257 77 -168 261 -204 394 -76 73 70
78 88 84 333 l6 219 -66 0 -66 0 -3 -214 c-3 -211 -3 -215 -27 -240 -50 -53
-132 -55 -188 -3 -22 19 -23 29 -23 147 0 70 -3 168 -6 218 l-7 92 -58 -1 -59
-2 0 -216z"/>
<path d="M6209 2954 c-46 -9 -132 -67 -164 -112 -29 -42 -30 -48 -33 -169 -3
-118 -2 -127 23 -178 31 -63 102 -130 154 -145 133 -37 274 21 327 134 21 45
24 66 24 171 0 137 -14 181 -71 229 -67 57 -173 85 -260 70z m160 -149 c34
-33 35 -37 39 -122 7 -157 -31 -223 -129 -223 -44 0 -55 5 -92 39 l-42 40 0
114 c0 130 6 144 80 179 54 25 100 16 144 -27z"/>
<path d="M3330 2640 l0 -310 65 0 65 0 0 126 0 125 125 -3 125 -3 0 51 c0 63
-2 64 -152 64 l-108 0 0 69 0 68 158 8 157 7 2 54 1 54 -219 0 -219 0 0 -310z"/>
<path d="M5593 2935 c4 -8 7 -145 8 -305 l1 -290 64 0 64 0 0 238 c0 130 -3
267 -7 305 l-6 67 -65 0 c-52 0 -63 -3 -59 -15z"/>
<path d="M6833 2778 c4 -95 7 -231 7 -303 l0 -130 60 0 60 0 0 185 1 185 22
-29 c12 -16 70 -99 128 -185 l105 -156 51 -3 51 -3 1 306 2 305 -56 0 c-45 0
-55 -3 -56 -17 -1 -10 -4 -90 -8 -178 l-6 -160 -47 70 c-26 39 -85 118 -132
178 l-86 107 -52 0 -51 0 6 -172z"/>
<path d="M1870 2780 c-124 -3 -226 -7 -227 -8 -10 -8 0 -61 12 -66 8 -3 309
-8 669 -11 l653 -6 7 23 c3 13 6 35 6 51 l0 27 -447 -2 c-247 -1 -549 -5 -673
-8z"/>
<path d="M7637 2783 c-4 -3 -7 -27 -7 -51 l0 -45 452 6 c248 4 552 7 675 7
l223 0 0 29 c0 64 34 61 -684 61 -359 0 -656 -3 -659 -7z"/>
</g>
</svg>
